<?xml version="1.0" encoding="UTF-8"?>
<svg width="158px" height="182px" viewBox="0 0 158 182" version="1.1" xmlns="http://www.w3.org/2000/svg" xmlns:xlink="http://www.w3.org/1999/xlink">
    <!-- Generator: Sketch 58 (84663) - https://sketch.com -->
    <title>design_icon</title>
    <desc>Created with Sketch.</desc>
    <g id="Main-site" stroke="none" stroke-width="1" fill="none" fill-rule="evenodd">
        <g id="website-(1440)" transform="translate(-641.000000, -1700.000000)">
            <g id="design_icon" transform="translate(631.000000, 1702.000000)">
                <polygon id="Polygon-Copy" stroke="#FFFFFF" stroke-width="3" points="89 0 166.076261 44.5 166.076261 133.5 89 178 11.9237391 133.5 11.9237391 44.5"></polygon>
                <g id="planning-copy" transform="translate(45.000000, 45.000000)" fill-rule="nonzero">
                    <polygon id="Path" fill="#FFFFFF" points="16.9006623 24.4768212 19.8145695 24.4768212 19.8145695 42.5430464 16.9006623 42.5430464"></polygon>
                    <polygon id="Path" fill="#FFFFFF" points="19.3705456 69.9337748 16.3178808 69.9337748 16.3178808 79.2582781 48.3708609 79.2582781 48.3708609 76.1501104 19.3705456 76.1501104"></polygon>
                    <path d="M86.2415029,10.2485274 C87.3753307,9.11469955 88,7.60698204 88,6.0035123 C88,2.69322121 85.3067788,0 81.9964877,0 C80.393018,0 78.8853004,0.624669254 77.7529924,1.75849715 L73.4304636,6.07950612 L81.9204939,14.5695364 L86.2415029,10.2485274 Z" id="Path" fill="#FFFFFF"></path>
                    <path d="M37.5744598,51.8046702 L47.205298,48.1911343 L39.8121138,40.794702 L38.0915518,45.3874492 L38.0915518,45.7138529 L37.9684347,45.7138529 L36.2001648,50.431311 C36.1555348,50.5529426 36.1324503,50.6776535 36.1324503,50.8054436 C36.1324503,51.5213764 36.9080883,52.0556316 37.5744598,51.8046702 Z" id="Path" fill="#FFFFFF"></path>
                    <path d="M36.1324503,54.2955837 C34.4041148,53.8340208 33.1214128,52.2769953 33.1214128,50.4112621 C33.1214128,49.9257219 33.2087329,49.4476746 33.380362,48.9936045 L34.7127461,45.4569536 L0,45.4569536 L0,66.4370861 L36.1324503,66.4370861 L36.1324503,54.2955837 Z M3.01103753,48.4541154 L30.1103753,48.4541154 L30.1103753,51.4512772 L3.01103753,51.4512772 L3.01103753,48.4541154 Z M3.01103753,54.448439 L30.1103753,54.448439 L30.1103753,57.4456008 L3.01103753,57.4456008 L3.01103753,54.448439 Z M27.0993377,63.4399243 L3.01103753,63.4399243 L3.01103753,60.4427625 L27.0993377,60.4427625 L27.0993377,63.4399243 Z M33.1214128,63.4399243 L30.1103753,63.4399243 L30.1103753,60.4427625 L33.1214128,60.4427625 L33.1214128,63.4399243 Z" id="Shape" fill="#FFFFFF"></path>
                    <polygon id="Path" fill="#E96658" transform="translate(61.057586, 32.244414) rotate(-45.000000) translate(-61.057586, -32.244414) " points="43.2660664 30.0068207 78.849106 30.0068207 78.849106 34.4820069 43.2660664 34.4820069"></polygon>
                    <polygon id="Path" fill="#E96658" transform="translate(55.748759, 26.934069) rotate(-45.000000) translate(-55.748759, -26.934069) " points="37.9572389 24.6964759 73.5402784 24.6964759 73.5402784 29.171662 37.9572389 29.171662"></polygon>
                    <polygon id="Path" fill="#FFFFFF" transform="translate(74.334743, 13.662222) rotate(-45.000000) translate(-74.334743, -13.662222) " points="72.633414 7.67002385 76.0360725 7.67002385 76.0360725 19.6544207 72.633414 19.6544207"></polygon>
                    <path d="M36.1324503,0 L0,0 L0,20.9801325 L36.1324503,20.9801325 L36.1324503,0 Z M27.0993377,17.9829707 L3.01103753,17.9829707 L3.01103753,14.9858089 L27.0993377,14.9858089 L27.0993377,17.9829707 Z M33.1214128,17.9829707 L30.1103753,17.9829707 L30.1103753,14.9858089 L33.1214128,14.9858089 L33.1214128,17.9829707 Z M33.1214128,11.9886471 L3.01103753,11.9886471 L3.01103753,8.99148534 L33.1214128,8.99148534 L33.1214128,11.9886471 Z M33.1214128,5.99432356 L3.01103753,5.99432356 L3.01103753,2.99716178 L33.1214128,2.99716178 L33.1214128,5.99432356 Z" id="Shape" fill="#FFFFFF"></path>
                    <path d="M51.8675497,88 L88,88 L88,67.0198675 L51.8675497,67.0198675 L51.8675497,88 Z M84.9889625,85.0028382 L81.9779249,85.0028382 L81.9779249,82.0056764 L84.9889625,82.0056764 L84.9889625,85.0028382 Z M54.8785872,70.0170293 L84.9889625,70.0170293 L84.9889625,73.0141911 L54.8785872,73.0141911 L54.8785872,70.0170293 Z M54.8785872,76.0113529 L84.9889625,76.0113529 L84.9889625,79.0085147 L54.8785872,79.0085147 L54.8785872,76.0113529 Z M54.8785872,82.0056764 L78.9668874,82.0056764 L78.9668874,85.0028382 L54.8785872,85.0028382 L54.8785872,82.0056764 Z" id="Shape" fill="#FFFFFF"></path>
                    <polygon id="Path" fill="#FFFFFF" points="67.0198675 36.7152318 85.0860927 36.7152318 85.0860927 39.6291391 67.0198675 39.6291391"></polygon>
                    <polygon id="Path" fill="#FFFFFF" points="67.0198675 42.5430464 85.0860927 42.5430464 85.0860927 45.4569536 67.0198675 45.4569536"></polygon>
                    <polygon id="Path" fill="#FFFFFF" points="67.0198675 48.3708609 69.9337748 48.3708609 69.9337748 51.2847682 67.0198675 51.2847682"></polygon>
                    <polygon id="Path" fill="#FFFFFF" points="78.6754967 48.3708609 81.589404 48.3708609 81.589404 51.2847682 78.6754967 51.2847682"></polygon>
                    <polygon id="Path" fill="#FFFFFF" points="72.8476821 48.3708609 75.7615894 48.3708609 75.7615894 51.2847682 72.8476821 51.2847682"></polygon>
                </g>
            </g>
        </g>
    </g>
</svg>