<svg xmlns="http://www.w3.org/2000/svg" viewBox="0 0 128.9 128.9"><defs><style>.cls-1{fill:#ecc15e;}</style></defs><title>yellow_mark</title><g id="Layer_2" data-name="Layer 2"><g id="Layer_1-2" data-name="Layer 1"><path class="cls-1" d="M64.4,0C29.37,0,0,29.37,0,64.4a64.44,64.44,0,0,0,64.49,64.5c35.05,0,64.39-29.36,64.41-64.41A64.44,64.44,0,0,0,64.4,0ZM82,38c-1.25,0-12.43-.11-18.25,8.34-.06.09-.16.22-.27.4a19,19,0,0,0-2.93,8.34,5.72,5.72,0,0,0-.07.7,17,17,0,0,0,0,3,10.31,10.31,0,0,0,1.6,4.59,16,16,0,0,0,1.54,2C64.9,67,66,68.28,66.08,70.73c0,0,0,0,0,.07a6.91,6.91,0,0,1,0,.8,8.45,8.45,0,0,1-1.58,4.93,7.43,7.43,0,0,1-2.85,2.76,8.28,8.28,0,0,1-6.23.57l-.24-.07a8.64,8.64,0,0,1-2.57-1.25l-.32-.25L52,78l-.25-.23-.06-.07a2.68,2.68,0,0,1-.28-.3,1.18,1.18,0,0,1-.18-.21.31.31,0,0,1-.09-.11.69.69,0,0,1-.11-.13,8.08,8.08,0,0,1-1.66-3.21s0,0,0-.06,0-.16-.08-.24a14.31,14.31,0,0,1-.7-4A18.65,18.65,0,0,1,50.48,61l.1-.18c.23-.54,0-.53-.54-.19A33.85,33.85,0,0,0,36.61,82.47a32.47,32.47,0,0,0-.43,5.28,36,36,0,0,0,3.07,14.31c0,.11.1.22.15.33s.11.22.15.33a2.3,2.3,0,0,1,.15.32c.08.16.15.32.24.48v0a.71.71,0,0,1-1,.93,47.48,47.48,0,1,1,66.63-16.3.52.52,0,0,1-1-.26v0c0-.89,0-1.77-.1-2.63l-.06-.61A36.31,36.31,0,0,0,99.21,69.5s0-.09-.08-.14l0,0a66.89,66.89,0,0,1-4.54-9.21,4.84,4.84,0,0,1-.33-2.8,5.2,5.2,0,0,1,1.11-2c.3-.37.54-.67.32-1s-1,0-2.87,1l-.53.29a37.07,37.07,0,0,1-5.41,2.36l-.89.26-.6.13a10.05,10.05,0,0,1-9.16-3.47c-.12-.16-.23-.32-.34-.49l-.13-.25c-2.11-3.89-.29-10.81,6.43-15.53C82.63,38.29,82.62,38.11,82,38Z"/></g></g></svg>