<?xml version="1.0" encoding="UTF-8"?>
<svg width="100px" height="100px" viewBox="0 0 100 100" version="1.1" xmlns="http://www.w3.org/2000/svg" xmlns:xlink="http://www.w3.org/1999/xlink">
    <!-- Generator: Sketch 58 (84663) - https://sketch.com -->
    <title>api_icon</title>
    <desc>Created with Sketch.</desc>
    <g id="Main-site" stroke="none" stroke-width="1" fill="none" fill-rule="evenodd">
        <g id="website-(1440)" transform="translate(-230.000000, -3086.000000)">
            <g id="icons/api" transform="translate(230.000000, 3086.000000)">
                <g id="014-computer">
                    <polygon id="Path" fill="#ECC15E" fill-rule="nonzero" points="9.67741935 32.2580645 16.1290323 32.2580645 16.1290323 35.483871 9.67741935 35.483871"></polygon>
                    <path d="M95.1612903,25.8064516 C97.8287236,25.8064516 100,23.6351752 100,20.9677419 L100,4.83870968 C100,2.17127641 97.8287236,0 95.1612903,0 L72.5806452,0 C69.9132119,0 67.7419355,2.17127641 67.7419355,4.83870968 L67.7419355,20.9677419 C67.7419355,23.6351752 69.9132119,25.8064516 72.5806452,25.8064516 L77.4193548,25.8064516 L77.4193548,29.0322581 L74.1935484,29.0322581 L74.1935484,32.2580645 L82.2580645,32.2580645 L82.2580645,48.3870968 L75.6016885,48.3870968 C74.314831,47.1309538 72.7302798,46.1693548 70.9567161,45.640121 C70.9645917,45.477098 70.9677419,45.3195879 70.9677419,45.1612903 C70.9677419,38.0465601 65.1792464,32.2580645 58.0645161,32.2580645 C53.6502962,32.2580645 49.5471585,34.5545615 47.1971081,38.2276966 C45.5416772,37.484249 43.751575,37.0967742 41.9354839,37.0967742 C36.5825038,37.0967742 31.7626954,40.4706401 29.8772996,45.4196069 C28.6518712,45.6826488 27.5099232,46.1536038 26.4727194,46.7741935 L14.516129,46.7741935 L14.516129,41.9354839 L20.9677419,41.9354839 C23.6351752,41.9354839 25.8064516,39.7642075 25.8064516,37.0967742 L25.8064516,4.83870968 C25.8064516,2.17127641 23.6351752,0 20.9677419,0 L4.83870968,0 C2.17127641,0 0,2.17127641 0,4.83870968 L0,37.0967742 C0,39.7642075 2.17127641,41.9354839 4.83870968,41.9354839 L11.2903226,41.9354839 L11.2903226,50 L23.0421496,50 C22.3561933,50.9789252 21.8238093,52.0594444 21.4741369,53.2258065 L14.516129,53.2258065 L14.516129,70.9677419 L8.06451613,70.9677419 C5.39708286,70.9677419 3.22580645,73.1390183 3.22580645,75.8064516 L3.22580645,90.3225806 L0,90.3225806 L0,95.1612903 C0,97.8287236 2.17127641,100 4.83870968,100 L30.6451613,100 C33.3125946,100 35.483871,97.8287236 35.483871,95.1612903 L35.483871,90.3225806 L32.2580645,90.3225806 L32.2580645,75.8064516 C32.2580645,73.1390183 30.0867881,70.9677419 27.4193548,70.9677419 L17.7419355,70.9677419 L17.7419355,56.4516129 L20.9677419,56.4516129 C20.9677419,62.6756238 26.0340536,67.7419355 32.2580645,67.7419355 L67.7419355,67.7419355 C73.4178113,67.7419355 78.1163369,63.5261782 78.9030998,58.0645161 L85.483871,58.0645161 L85.483871,70.9677419 L74.1935484,70.9677419 L74.1935484,100 L100,100 L100,70.9677419 L88.7096774,70.9677419 L88.7096774,54.8387097 L78.8967994,54.8387097 C78.7290512,53.7030621 78.3809538,52.6225427 77.8934601,51.6129032 L85.483871,51.6129032 L85.483871,32.2580645 L93.5483871,32.2580645 L93.5483871,29.0322581 L90.3225806,29.0322581 L90.3225806,25.8064516 L95.1612903,25.8064516 Z M22.5806452,25.8064516 L3.22580645,25.8064516 L3.22580645,9.67741935 L22.5806452,9.67741935 L22.5806452,25.8064516 Z M4.83870968,3.22580645 L20.9677419,3.22580645 C21.8576738,3.22580645 22.5806452,3.94877782 22.5806452,4.83870968 L22.5806452,6.4516129 L3.22580645,6.4516129 L3.22580645,4.83870968 C3.22580645,3.94877782 3.94877782,3.22580645 4.83870968,3.22580645 Z M3.22580645,37.0967742 L3.22580645,29.0322581 L22.5806452,29.0322581 L22.5806452,37.0967742 C22.5806452,37.986706 21.8576738,38.7096774 20.9677419,38.7096774 L4.83870968,38.7096774 C3.94877782,38.7096774 3.22580645,37.986706 3.22580645,37.0967742 Z M32.2580645,95.1612903 C32.2580645,96.0512222 31.5350931,96.7741935 30.6451613,96.7741935 L4.83870968,96.7741935 C3.94877782,96.7741935 3.22580645,96.0512222 3.22580645,95.1612903 L3.22580645,93.5483871 L32.2580645,93.5483871 L32.2580645,95.1612903 Z M29.0322581,75.8064516 L29.0322581,90.3225806 L6.4516129,90.3225806 L6.4516129,75.8064516 C6.4516129,74.9165198 7.17458427,74.1935484 8.06451613,74.1935484 L27.4193548,74.1935484 C28.3092867,74.1935484 29.0322581,74.9165198 29.0322581,75.8064516 Z M77.4193548,96.7741935 L77.4193548,87.0967742 L96.7741935,87.0967742 L96.7741935,96.7741935 L77.4193548,96.7741935 Z M96.7741935,83.8709677 L77.4193548,83.8709677 L77.4193548,74.1935484 L96.7741935,74.1935484 L96.7741935,83.8709677 Z M67.7419355,64.516129 L32.2580645,64.516129 C27.8115548,64.516129 24.1935484,60.8981226 24.1935484,56.4516129 C24.1935484,52.3744645 27.2453062,48.9352319 31.2901651,48.4516758 L32.3486329,48.3240927 L32.6471145,47.3002772 C33.8402532,43.1916268 37.6614478,40.3225806 41.9354839,40.3225806 C43.7161353,40.3225806 45.4644972,40.8226752 46.9970704,41.7661605 L48.5367315,42.7159464 L49.3045929,41.0754788 C50.8922946,37.6771988 54.3307397,35.483871 58.0645161,35.483871 C63.4017452,35.483871 67.7419355,39.8240613 67.7419355,45.1612903 C67.7419355,45.6062563 67.7017704,46.0803617 67.6143524,46.6529109 L67.3709992,48.2484879 L68.9657887,48.4902659 C72.8657383,49.085654 75.8064516,52.508348 75.8064516,56.4516129 C75.8064516,60.8981226 72.1884452,64.516129 67.7419355,64.516129 L67.7419355,64.516129 Z M72.5806452,3.22580645 L95.1612903,3.22580645 C96.0512222,3.22580645 96.7741935,3.94877782 96.7741935,4.83870968 L96.7741935,16.1290323 L70.9677419,16.1290323 L70.9677419,4.83870968 C70.9677419,3.94877782 71.6907133,3.22580645 72.5806452,3.22580645 Z M70.9677419,20.9677419 L70.9677419,19.3548387 L96.7741935,19.3548387 L96.7741935,20.9677419 C96.7741935,21.8576738 96.0512222,22.5806452 95.1612903,22.5806452 L72.5806452,22.5806452 C71.6907133,22.5806452 70.9677419,21.8576738 70.9677419,20.9677419 Z M87.0967742,29.0322581 L80.6451613,29.0322581 L80.6451613,25.8064516 L87.0967742,25.8064516 L87.0967742,29.0322581 Z" id="Shape" fill="#FFFFFF" fill-rule="nonzero"></path>
                    <polygon id="Path" fill="#ECC15E" fill-rule="nonzero" points="80.6451613 77.4193548 83.8709677 77.4193548 83.8709677 80.6451613 80.6451613 80.6451613"></polygon>
                    <polygon id="Path" fill="#ECC15E" fill-rule="nonzero" points="90.3225806 90.3225806 93.5483871 90.3225806 93.5483871 93.5483871 90.3225806 93.5483871"></polygon>
                    <polygon id="Path" fill="#ECC15E" fill-rule="nonzero" points="87.0967742 77.4193548 93.5483871 77.4193548 93.5483871 80.6451613 87.0967742 80.6451613"></polygon>
                    <polygon id="Path" fill="#ECC15E" fill-rule="nonzero" points="80.6451613 90.3225806 87.0967742 90.3225806 87.0967742 93.5483871 80.6451613 93.5483871"></polygon>
                </g>
            </g>
        </g>
    </g>
</svg>