<?xml version="1.0" encoding="UTF-8"?>
<svg width="100px" height="100px" viewBox="0 0 100 100" version="1.1" xmlns="http://www.w3.org/2000/svg" xmlns:xlink="http://www.w3.org/1999/xlink">
    <!-- Generator: Sketch 58 (84663) - https://sketch.com -->
    <title>mobileapp_icon</title>
    <desc>Created with Sketch.</desc>
    <g id="Main-site" stroke="none" stroke-width="1" fill="none" fill-rule="evenodd">
        <g id="website-(1440)" transform="translate(-1090.000000, -2737.000000)">
            <g id="icons/mobile" transform="translate(1090.000000, 2737.000000)">
                <g id="011-smartphone">
                    <path d="M3.22580645,12.9032258 L54.8387097,12.9032258 L54.8387097,16.1290323 L58.0645161,16.1290323 L58.0645161,8.06451613 C58.0645161,3.61774194 54.4467742,0 50,0 L8.06451613,0 C3.61774194,0 0,3.61774194 0,8.06451613 L0,80.6451613 L3.22580645,80.6451613 L3.22580645,12.9032258 Z M3.22580645,8.06451613 C3.22580645,5.39677419 5.39677419,3.22580645 8.06451613,3.22580645 L50,3.22580645 C52.6677419,3.22580645 54.8387097,5.39677419 54.8387097,8.06451613 L54.8387097,9.67741935 L3.22580645,9.67741935 L3.22580645,8.06451613 Z" id="Shape" fill="#FFFFFF" fill-rule="nonzero"></path>
                    <path d="M0,91.9354839 C0,96.3822581 3.61774194,100 8.06451613,100 L50,100 C54.4467742,100 58.0645161,96.3822581 58.0645161,91.9354839 L58.0645161,83.8709677 L0,83.8709677 L0,91.9354839 Z M3.22580645,87.0967742 L54.8387097,87.0967742 L54.8387097,91.9354839 C54.8387097,94.6032258 52.6677419,96.7741935 50,96.7741935 L8.06451613,96.7741935 C5.39677419,96.7741935 3.22580645,94.6032258 3.22580645,91.9354839 L3.22580645,87.0967742 Z" id="Shape" fill="#FFFFFF" fill-rule="nonzero"></path>
                    <rect id="Rectangle" fill="#FFFFFF" fill-rule="nonzero" x="20.9677419" y="90.3225806" width="16.1290323" height="3.22580645"></rect>
                    <path d="M72.5806452,50 C67.2435484,50 62.9032258,54.3403226 62.9032258,59.6774194 C62.9032258,65.0145161 67.2435484,69.3548387 72.5806452,69.3548387 C77.9177419,69.3548387 82.2580645,65.0145161 82.2580645,59.6774194 C82.2580645,54.3403226 77.9177419,50 72.5806452,50 Z M72.5806452,66.1290323 C69.0225806,66.1290323 66.1290323,63.2354839 66.1290323,59.6774194 C66.1290323,56.1193548 69.0225806,53.2258065 72.5806452,53.2258065 C76.1387097,53.2258065 79.0322581,56.1193548 79.0322581,59.6774194 C79.0322581,63.2354839 76.1387097,66.1290323 72.5806452,66.1290323 Z" id="Shape" fill="#FFFFFF" fill-rule="nonzero"></path>
                    <path d="M27.4193548,29.0322581 C22.9725806,29.0322581 19.3548387,32.65 19.3548387,37.0967742 C19.3548387,41.5435484 22.9725806,45.1612903 27.4193548,45.1612903 C31.866129,45.1612903 35.483871,41.5435484 35.483871,37.0967742 C35.483871,32.65 31.866129,29.0322581 27.4193548,29.0322581 Z M27.4193548,41.9354839 C24.7516129,41.9354839 22.5806452,39.7645161 22.5806452,37.0967742 C22.5806452,34.4290323 24.7516129,32.2580645 27.4193548,32.2580645 C30.0870968,32.2580645 32.2580645,34.4290323 32.2580645,37.0967742 C32.2580645,39.7645161 30.0870968,41.9354839 27.4193548,41.9354839 Z" id="Shape" fill="#FFFFFF" fill-rule="nonzero"></path>
                    <path d="M33.1451613,52.1774194 C33.4419355,52.0645161 33.7370968,51.9403226 34.0306452,51.8064516 L39.0306452,55.1403226 L45.4629032,48.7080645 L42.1290323,43.7080645 C42.2629032,43.4129032 42.3870968,43.1177419 42.5,42.8225806 L48.3870968,41.6451613 L48.3870968,32.5483871 L42.5,31.3709677 C42.2725806,30.7822581 42.0048387,30.1935484 41.7,29.6112903 L38.8451613,31.1129032 C39.2177419,31.8241935 39.5209677,32.5451613 39.7403226,33.2516129 L40.0258065,34.166129 L45.1612903,35.1935484 L45.1612903,39 L40.0241935,40.0274194 L39.7387097,40.9419355 C39.5193548,41.6483871 39.2177419,42.3677419 38.8435484,43.0806452 L38.3983871,43.9290323 L41.3096774,48.2967742 L38.6193548,50.9887097 L34.2516129,48.0758065 L33.4048387,48.5209677 C32.6967742,48.8935484 31.9758065,49.1951613 31.2645161,49.4177419 L30.3516129,49.7032258 L29.3241935,54.8387097 L25.516129,54.8387097 L24.4887097,49.7032258 L23.5758065,49.4177419 C22.8645161,49.1951613 22.1435484,48.8935484 21.4354839,48.5209677 L20.5887097,48.0758065 L16.2209677,50.9887097 L12.5951613,47.3612903 L10.3145161,49.6419355 L15.8112903,55.1387097 L20.8112903,51.8048387 C21.1048387,51.9387097 21.4,52.0629032 21.6967742,52.1758065 L22.8741935,58.0629032 L31.9693548,58.0629032 L33.1451613,52.1774194 Z" id="Path" fill="#ECC15E" fill-rule="nonzero"></path>
                    <path d="M6.4516129,32.5483871 L6.4516129,41.6451613 L12.3387097,42.8225806 C12.566129,43.4112903 12.833871,44 13.1387097,44.5822581 L15.9935484,43.0806452 C15.6209677,42.3693548 15.3177419,41.6483871 15.0983871,40.9419355 L14.8129032,40.0274194 L9.67741935,39 L9.67741935,35.1935484 L14.8145161,34.166129 L15.1,33.2516129 C15.3193548,32.5451613 15.6209677,31.8258065 15.9951613,31.1129032 L16.4403226,30.2645161 L13.5290323,25.8967742 L16.2209677,23.2048387 L20.5903226,26.1177419 L21.4370968,25.6709677 C22.1435484,25.3 22.8629032,24.9983871 23.5741935,24.7758065 L24.4870968,24.4903226 L25.5145161,19.3548387 L29.3225806,19.3548387 L30.35,24.4903226 L31.2629032,24.7758065 C31.9741935,24.9983871 32.6951613,25.3 33.4,25.6709677 L34.2467742,26.1177419 L38.616129,23.2048387 L42.2435484,26.8322581 L44.5241935,24.5516129 L39.0290323,19.0548387 L34.0274194,22.3870968 C33.7322581,22.2532258 33.4387097,22.1306452 33.1419355,22.016129 L31.966129,16.1290323 L22.8709677,16.1290323 L21.6935484,22.016129 C21.3967742,22.1306452 21.1032258,22.2532258 20.8080645,22.3870968 L15.8064516,19.0548387 L9.37580645,25.4854839 L12.7096774,30.4854839 C12.5758065,30.7806452 12.4516129,31.0758065 12.3387097,31.3709677 L6.4516129,32.5483871 Z" id="Path" fill="#ECC15E" fill-rule="nonzero"></path>
                    <rect id="Rectangle" fill="#FFFFFF" fill-rule="nonzero" x="25.8064516" y="61.2903226" width="3.22580645" height="3.22580645"></rect>
                    <rect id="Rectangle" fill="#FFFFFF" fill-rule="nonzero" x="25.8064516" y="67.7419355" width="3.22580645" height="3.22580645"></rect>
                    <rect id="Rectangle" fill="#FFFFFF" fill-rule="nonzero" x="25.8064516" y="74.1935484" width="3.22580645" height="3.22580645"></rect>
                    <rect id="Rectangle" fill="#FFFFFF" fill-rule="nonzero" x="70.9677419" y="25.8064516" width="3.22580645" height="3.22580645"></rect>
                    <rect id="Rectangle" fill="#FFFFFF" fill-rule="nonzero" x="70.9677419" y="19.3548387" width="3.22580645" height="3.22580645"></rect>
                    <rect id="Rectangle" fill="#FFFFFF" fill-rule="nonzero" x="70.9677419" y="12.9032258" width="3.22580645" height="3.22580645"></rect>
                    <path d="M100,65.8387097 L100,53.516129 L92.0451613,51.9274194 C91.8596774,51.4612903 91.6548387,51 91.433871,50.5451613 L88.5322581,51.9564516 C88.8354839,52.5822581 89.1032258,53.2209677 89.3225806,53.8596774 L89.6258065,54.7322581 L96.7741935,56.1612903 L96.7741935,63.1919355 L89.6258065,64.6225806 L89.3225806,65.4951613 C89.1016129,66.133871 88.8354839,66.7741935 88.5322581,67.3983871 L88.1274194,68.2290323 L92.1741935,74.2983871 L87.2016129,79.2709677 L81.1306452,75.2258065 L80.3,75.6306452 C79.6758065,75.933871 79.0354839,76.2016129 78.3967742,76.4209677 L77.5241935,76.7241935 L76.0967742,83.8709677 L69.0645161,83.8709677 L67.633871,76.7225806 L66.7612903,76.4193548 C66.1225806,76.1983871 65.4822581,75.9322581 64.8580645,75.6290323 L64.0274194,75.2241935 L57.9564516,79.2693548 L52.0483871,73.3629032 L49.7677419,75.6435484 L57.5467742,83.4209677 L64.2967742,78.9209677 C64.4725806,78.9967742 64.65,79.0709677 64.8274194,79.1419355 L66.4193548,87.0967742 L78.7435484,87.0967742 L80.3322581,79.1419355 C80.5096774,79.0709677 80.6870968,78.9967742 80.8629032,78.9209677 L87.6129032,83.4209677 L96.3274194,74.7096774 L91.8258065,67.9580645 C91.9016129,67.7822581 91.9758065,67.6048387 92.0467742,67.4274194 L100,65.8387097 Z" id="Path" fill="#FFFFFF" fill-rule="nonzero"></path>
                    <path d="M48.833871,44.6451613 L53.3354839,51.3951613 C53.2596774,51.5709677 53.1854839,51.7483871 53.1145161,51.9258065 L45.1612903,53.516129 L45.1612903,65.8403226 L53.116129,67.4290323 C53.3016129,67.8951613 53.5064516,68.3564516 53.7274194,68.8096774 L56.6290323,67.3983871 C56.3258065,66.7741935 56.0580645,66.133871 55.8387097,65.4951613 L55.5354839,64.6225806 L48.3870968,63.1935484 L48.3870968,56.1612903 L55.5354839,54.7306452 L55.8387097,53.8580645 C56.0596774,53.2193548 56.3258065,52.5806452 56.6290323,51.9548387 L57.033871,51.1225806 L52.9870968,45.0548387 L57.9596774,40.0822581 L64.0290323,44.1274194 L64.8612903,43.7241935 C65.483871,43.4209677 66.1258065,43.1532258 66.7677419,42.9306452 L67.6370968,42.6274194 L69.0629032,35.483871 L76.0967742,35.483871 L77.5258065,42.6290323 L78.3951613,42.9322581 C79.0354839,43.1548387 79.6790323,43.4225806 80.3016129,43.7258065 L81.133871,44.1290323 L87.2032258,40.083871 L93.1112903,45.9919355 L95.3919355,43.7112903 L87.6129032,35.933871 L80.8612903,40.433871 C80.6870968,40.3580645 80.5096774,40.2854839 80.3322581,40.2145161 L78.7403226,32.2580645 L66.4193548,32.2580645 L64.8290323,40.2129032 C64.6516129,40.283871 64.4741935,40.3564516 64.3,40.4322581 L57.5483871,35.9322581 L48.833871,44.6451613 Z" id="Path" fill="#FFFFFF" fill-rule="nonzero"></path>
                </g>
            </g>
        </g>
    </g>
</svg>