<svg xmlns="http://www.w3.org/2000/svg" viewBox="0 0 635.81 63.01"><defs><style>.cls-1{fill:#fff;}</style></defs><title>white_tl_wordmark</title><g id="Layer_2" data-name="Layer 2"><g id="Layer_1-2" data-name="Layer 1"><path class="cls-1" d="M17.11,13.21H0V1.52H47.43V13.21H30.32V61.49H17.11Z"/><path class="cls-1" d="M144.89,1.52H168.1c12.28,0,22.61,4.24,22.61,18.21,0,8.39-4.49,14.91-13,16.43L193,61.49H177.16l-12.53-24h-6.52v24H144.89Zm13.22,24.82h7.79c4.83,0,11.09-.17,11.09-6.69,0-6-5.42-6.95-10.25-6.95h-8.63Z"/><path class="cls-1" d="M249.14,17.11c-2.62-3.14-6.43-4.91-11.35-4.91-10,0-17.36,8.13-17.36,19.31s7.37,19.31,16.94,19.31a14.36,14.36,0,0,0,12.37-6.44l11,8.21c-5,7.12-13.47,10.42-21.69,10.42-18.71,0-32.35-12.28-32.35-31.5S220.35,0,239.06,0c6.69,0,15.16,2.29,20.25,8.81Z"/><path class="cls-1" d="M278.1,1.52h13.21V23.88H317V1.52h13.21v60H317V35.57H291.31V61.49H278.1Z"/><path class="cls-1" d="M353.05,1.52h13.21V49.29h24.47v12.2H353.05Z"/><path class="cls-1" d="M408,1.52h13.22v60H408Z"/><path class="cls-1" d="M497.69,57.25A53.71,53.71,0,0,1,472.54,63c-18.72,0-32.36-12.28-32.36-31.5S453.82,0,472.54,0c9.48,0,17.87,2.12,23.88,7.71L487.1,17.87c-3.55-3.73-7.87-5.67-14.56-5.67-11.27,0-18.64,8.13-18.64,19.31s7.37,19.31,18.64,19.31a25.81,25.81,0,0,0,12.45-3V38.11H474.23V25.92h23.46Z"/><path class="cls-1" d="M519.45,1.52h13.21V23.88h25.66V1.52h13.21v60H558.32V35.57H532.66V61.49H519.45Z"/><path class="cls-1" d="M605.49,13.21H588.38V1.52h47.43V13.21H618.7V61.49H605.49Z"/><path class="cls-1" d="M100.35,25.1c-.45,0-4.47-.05-6.56,3l-.09.14a6.88,6.88,0,0,0-1.06,3,2.29,2.29,0,0,0,0,.25,6.65,6.65,0,0,0,0,1.1,3.85,3.85,0,0,0,.58,1.65,6.05,6.05,0,0,0,.55.73,2.8,2.8,0,0,1,.87,1.88v0a2.64,2.64,0,0,1,0,.29,3,3,0,0,1-.57,1.77,2.7,2.7,0,0,1-1,1,3,3,0,0,1-2.24.21l-.09,0a3.15,3.15,0,0,1-.92-.45l-.12-.09-.13-.11-.09-.08,0,0-.1-.11-.07-.08,0,0,0,0a3,3,0,0,1-.59-1.16v0l0-.08a5.31,5.31,0,0,1-.25-1.43,6.61,6.61,0,0,1,.7-3l0-.06c0-.13,0-.14-.19-.07A12.18,12.18,0,0,0,84,41.05a12.66,12.66,0,0,0-.15,1.9A13,13,0,0,0,85,48.09l.06.12,0,.12.06.11a.89.89,0,0,0,.08.17,12.42,12.42,0,0,0,2.44,3.26l0,.06.23.21a12.24,12.24,0,0,0,8.21,3.15,12.41,12.41,0,0,0,5.06-1.08l.43-.21.28-.14h0l.34-.19.25-.15.25-.16.25-.16c.22-.14.42-.29.63-.45l.37-.3.45-.39.22-.21.06-.07.25-.24.22-.24.21-.23.21-.25.16-.2.13-.17.25-.33.09-.14.22-.33a12.15,12.15,0,0,0,2-6.64c0-.32,0-.63,0-.94,0-.07,0-.15,0-.22a13.28,13.28,0,0,0-1.88-5.45l0,0v0a24.08,24.08,0,0,1-1.63-3.3,1.7,1.7,0,0,1-.12-1,1.87,1.87,0,0,1,.4-.72c.11-.14.19-.25.11-.35s-.37,0-1,.35l-.19.1a11.48,11.48,0,0,1-1.94.84l-.32.1-.22.05a3.62,3.62,0,0,1-3.29-1.25L98.14,31a.41.41,0,0,0,0-.09c-.75-1.39-.1-3.88,2.32-5.57C100.55,25.18,100.55,25.11,100.35,25.1Z"/><path class="cls-1" d="M93.41,0c18.72,0,32.35,12.28,32.35,31.51S112.13,63,93.41,63,61.06,50.73,61.06,31.51,74.69,0,93.41,0Zm0,50.82c11.26,0,18.63-8.14,18.63-19.31S104.67,12.2,93.41,12.2,74.78,20.33,74.78,31.51,82.15,50.82,93.41,50.82Z"/></g></g></svg>