<?xml version="1.0" encoding="UTF-8"?>
<svg width="158px" height="182px" viewBox="0 0 158 182" version="1.1" xmlns="http://www.w3.org/2000/svg" xmlns:xlink="http://www.w3.org/1999/xlink">
    <!-- Generator: Sketch 58 (84663) - https://sketch.com -->
    <title>create_icon</title>
    <desc>Created with Sketch.</desc>
    <g id="Main-site" stroke="none" stroke-width="1" fill="none" fill-rule="evenodd">
        <g id="website-(1440)" transform="translate(-1071.000000, -1700.000000)">
            <g id="create_icon" transform="translate(1061.000000, 1702.000000)">
                <polygon id="Polygon-Copy-2" stroke="#FFFFFF" stroke-width="3" points="89 0 166.076261 44.5 166.076261 133.5 89 178 11.9237391 133.5 11.9237391 44.5"></polygon>
                <g id="gear" transform="translate(45.000000, 45.000000)" fill-rule="nonzero">
                    <path d="M80.9032258,19.7829457 L73.8064516,19.7829457 L73.8064516,22.625323 L80.9032258,22.625323 C83.2505671,22.625323 85.1612903,24.5385149 85.1612903,26.8888889 L85.1612903,65.2609819 L2.83870968,65.2609819 L2.83870968,26.8888889 C2.83870968,24.5385149 4.74943292,22.625323 7.09677419,22.625323 L14.1935484,22.625323 L14.1935484,19.7829457 L7.09677419,19.7829457 C3.18384568,19.7829457 0,22.9709049 0,26.8888889 L0,72.3669251 C0,76.284909 3.18384568,79.4728682 7.09677419,79.4728682 L25.5483871,79.4728682 L25.5483871,85.1576227 L19.8709677,85.1576227 L19.8709677,88 L68.1290323,88 L68.1290323,85.1576227 L62.4516129,85.1576227 L62.4516129,79.4728682 L80.9032258,79.4728682 C84.8161543,79.4728682 88,76.284909 88,72.3669251 L88,26.8888889 C88,22.9709049 84.8161543,19.7829457 80.9032258,19.7829457 Z M59.6129032,85.1576227 L28.3870968,85.1576227 L28.3870968,79.4728682 L59.6129032,79.4728682 L59.6129032,85.1576227 Z M80.9032258,76.630491 L7.09677419,76.630491 C4.74943292,76.630491 2.83870968,74.7172991 2.83870968,72.3669251 L2.83870968,68.1033592 L85.1612903,68.1033592 L85.1612903,72.3669251 C85.1612903,74.7172991 83.2505671,76.630491 80.9032258,76.630491 Z" id="Shape" fill="#FFFFFF"></path>
                    <polygon id="Path" fill="#FFFFFF" points="68.2170543 70.9457364 70.9457364 70.9457364 70.9457364 73.6744186 68.2170543 73.6744186"></polygon>
                    <polygon id="Path" fill="#FFFFFF" points="73.6744186 70.9457364 76.4031008 70.9457364 76.4031008 73.6744186 73.6744186 73.6744186"></polygon>
                    <polygon id="Path" fill="#FFFFFF" points="79.8139535 70.9457364 82.5426357 70.9457364 82.5426357 73.6744186 79.8139535 73.6744186"></polygon>
                    <polygon id="Path" fill="#FFFFFF" points="62.7596899 59.3488372 82.5426357 59.3488372 82.5426357 62.0775194 62.7596899 62.0775194"></polygon>
                    <polygon id="Path" fill="#FFFFFF" points="62.7596899 53.8914729 82.5426357 53.8914729 82.5426357 56.620155 62.7596899 56.620155"></polygon>
                    <polygon id="Path" fill="#FFFFFF" points="65.4883721 48.4341085 82.5426357 48.4341085 82.5426357 51.1627907 65.4883721 51.1627907"></polygon>
                    <polygon id="Path" fill="#FFFFFF" points="70.9457364 42.9767442 82.5426357 42.9767442 82.5426357 45.7054264 70.9457364 45.7054264"></polygon>
                    <path d="M16.8466464,21.7150255 L16.8466464,25.6744186 L5.45736434,25.6744186 L5.45736434,62.7596899 L33.9305696,62.7596899 L33.9305696,47.5816679 C34.971204,48.0893895 36.0445104,48.5372154 37.160916,48.8826611 L38.5206227,54.2015504 L49.2731505,54.2015504 L50.6328573,48.8826611 C51.9779659,48.4661761 53.2778901,47.9285065 54.5124705,47.27801 L59.2234791,50.0736131 L66.8269928,42.4570918 L64.035284,37.735768 C64.6859412,36.5002422 65.2225944,35.197856 65.638292,33.8501999 L70.9457364,32.4865249 L70.9457364,21.7136325 L65.6369018,20.3513505 C65.221204,19.0036944 64.6845508,17.7013081 64.0338936,16.4657824 L66.8256024,11.7444586 L59.2220889,4.1279373 L54.5110803,6.92354041 C53.2778901,6.27165088 51.9779659,5.73537432 50.6314669,5.31888925 L49.2717602,0 L38.5192323,0 L37.1595256,5.31888925 C35.814417,5.73537432 34.5144928,6.27304389 33.2799124,6.92354041 L28.5689038,4.1279373 L20.9653901,11.7444586 L23.7570989,16.4657824 C23.1064416,17.7013081 22.5697885,19.0036944 22.1540909,20.3513505 L16.8466464,21.7150255 Z M8.30468487,59.9069767 L8.30468487,28.5271318 L16.8466464,28.5271318 L16.8466464,32.4865249 L22.1554811,33.8488069 C22.5711788,35.1964632 23.107832,36.4988494 23.7584893,37.734375 L20.9667805,42.4556989 L28.570294,50.0722202 L31.0832491,48.581789 L31.0832491,59.9069767 L8.30468487,59.9069767 Z M24.4564165,22.7074855 L24.6726069,21.9030704 C25.1223668,20.228773 25.7813658,18.6310865 26.6315302,17.1517987 L27.0472278,16.4302629 L24.5426146,12.1964632 L29.0214441,7.71054389 L33.2472404,10.2185078 L33.9688027,9.80202268 C35.4425135,8.95024835 37.0371798,8.29000126 38.7083122,7.83938953 L39.5112066,7.62278944 L40.7297986,2.85271318 L47.0611939,2.85271318 L48.2797859,7.62418246 L49.0826803,7.84078237 C50.7538127,8.29139409 52.3484791,8.95164119 53.82219,9.8034157 L54.5437521,10.2199006 L58.7688533,7.71263315 L63.2476829,12.197856 L60.7437647,16.4316557 L61.1594623,17.1531916 C62.0096267,18.6310865 62.6686257,20.230166 63.1183856,21.9044635 L63.3345762,22.7088785 L68.0984159,23.9283854 L68.0984159,30.271772 L63.3359664,31.4926719 L63.119776,32.2970869 C62.6700161,33.9713844 62.0110171,35.569071 61.1608527,37.0483588 L60.7451551,37.7698947 L63.2497682,42.0036944 L58.7709387,46.4889172 L54.5451424,43.9816498 L53.8235802,44.3981347 C52.3498694,45.2499092 50.7552031,45.9101563 49.0840707,46.360768 L48.2811763,46.5773679 L47.0625843,51.3488372 L40.731189,51.3488372 L39.512597,46.5773679 L38.7097026,46.360768 C37.0385701,45.9101563 35.4439037,45.2499092 33.9701929,44.3981347 L33.2486308,43.9816498 L29.0235296,46.4889172 L24.5446999,42.0036944 L27.0486181,37.7698947 L26.6329205,37.0483588 C25.7827562,35.5704639 25.1237572,33.9713844 24.6739973,32.2970869 L24.4578067,31.4926719 L19.693967,30.273165 L19.693967,23.9297784 L24.4564165,22.7074855 Z" id="Shape" fill="#FFFFFF"></path>
                    <path d="M43.6589147,44.3410853 C53.0631864,44.3410853 60.7131783,36.6910933 60.7131783,27.2868217 C60.7131783,17.8825501 53.0631864,10.2325581 43.6589147,10.2325581 C34.2546431,10.2325581 26.6046512,17.8825501 26.6046512,27.2868217 C26.6046512,36.6910933 34.2546431,44.3410853 43.6589147,44.3410853 Z M43.6589147,13.0749354 C51.4955764,13.0749354 57.870801,19.45016 57.870801,27.2868217 C57.870801,35.1234834 51.4955764,41.498708 43.6589147,41.498708 C35.8222531,41.498708 29.4470284,35.1234834 29.4470284,27.2868217 C29.4470284,19.45016 35.8222531,13.0749354 43.6589147,13.0749354 Z" id="Shape" fill="#E96658"></path>
                    <path d="M44,38.2015504 C50.2063612,38.2015504 55.255814,33.1520976 55.255814,26.9457364 C55.255814,20.7393752 50.2063612,15.6899225 44,15.6899225 C37.7936388,15.6899225 32.744186,20.7393752 32.744186,26.9457364 C32.744186,33.1520976 37.7936388,38.2015504 44,38.2015504 Z M44,18.503876 C48.6558014,18.503876 52.4418605,22.289935 52.4418605,26.9457364 C52.4418605,31.6015379 48.6558014,35.3875969 44,35.3875969 C39.3441986,35.3875969 35.5581395,31.6015379 35.5581395,26.9457364 C35.5581395,22.289935 39.3441986,18.503876 44,18.503876 Z" id="Shape" fill="#E96658"></path>
                    <polygon id="Path" fill="#FFFFFF" points="39.5658915 25.9224806 42.2945736 25.9224806 42.2945736 28.6511628 39.5658915 28.6511628"></polygon>
                    <polygon id="Path" fill="#FFFFFF" points="45.7054264 25.9224806 48.4341085 25.9224806 48.4341085 28.6511628 45.7054264 28.6511628"></polygon>
                    <polygon id="Path" fill="#FFFFFF" points="11.5968992 31.379845 14.3255814 31.379845 14.3255814 34.1085271 11.5968992 34.1085271"></polygon>
                    <polygon id="Path" fill="#FFFFFF" points="11.5968992 36.8372093 17.0542636 36.8372093 17.0542636 39.5658915 11.5968992 39.5658915"></polygon>
                    <polygon id="Path" fill="#FFFFFF" points="11.5968992 42.9767442 17.0542636 42.9767442 17.0542636 45.7054264 11.5968992 45.7054264"></polygon>
                    <polygon id="Path" fill="#FFFFFF" points="10.9147287 48.4341085 22.5116279 48.4341085 22.5116279 51.1627907 10.9147287 51.1627907"></polygon>
                    <polygon id="Path" fill="#FFFFFF" points="11.5968992 53.8914729 28.6511628 53.8914729 28.6511628 56.620155 11.5968992 56.620155"></polygon>
                </g>
            </g>
        </g>
    </g>
</svg>