<?xml version="1.0" encoding="UTF-8"?>
<svg width="100px" height="100px" viewBox="0 0 100 100" version="1.1" xmlns="http://www.w3.org/2000/svg" xmlns:xlink="http://www.w3.org/1999/xlink">
    <!-- Generator: Sketch 58 (84663) - https://sketch.com -->
    <title>devops_icon</title>
    <desc>Created with Sketch.</desc>
    <g id="Main-site" stroke="none" stroke-width="1" fill="none" fill-rule="evenodd">
        <g id="website-(1440)" transform="translate(-1090.000000, -3086.000000)">
            <g id="icons/database" transform="translate(1090.000000, 3086.000000)">
                <g id="019-product">
                    <path d="M90.1048387,68.5177419 L81.4822581,59.8935484 L78.0370968,61.9596774 L77.066129,58.0645161 L72.5806452,58.0645161 L72.5806452,54.8387097 L20.9677419,54.8387097 L20.9677419,77.4193548 L50,77.4193548 L50,85.1306452 L53.8951613,86.1032258 L51.8306452,89.5467742 L60.4532258,98.1709677 L63.8983871,96.1048387 L64.8693548,100 L77.066129,100 L78.0387097,96.1032258 L81.483871,98.1693548 L90.1064516,89.5451613 L88.0419355,86.1016129 L91.9354839,85.1306452 L91.9354839,72.933871 L88.0387097,71.9612903 L90.1048387,68.5177419 Z M72.5806452,79.0322581 C72.5806452,79.9209677 71.8580645,80.6451613 70.9677419,80.6451613 C70.0774194,80.6451613 69.3548387,79.9209677 69.3548387,79.0322581 C69.3548387,78.1435484 70.0774194,77.4193548 70.9677419,77.4193548 C71.8580645,77.4193548 72.5806452,78.1435484 72.5806452,79.0322581 Z M69.3548387,74.1935484 L37.0967742,74.1935484 L37.0967742,67.7419355 L69.3548387,67.7419355 L69.3548387,74.1935484 Z M63.0903226,77.4193548 L66.4274194,77.4193548 C66.2451613,77.9258065 66.1290323,78.4645161 66.1290323,79.0322581 C66.1290323,81.7 68.3,83.8709677 70.9677419,83.8709677 C73.6354839,83.8709677 75.8064516,81.7 75.8064516,79.0322581 C75.8064516,76.9322581 74.4532258,75.1580645 72.5806452,74.4903226 L72.5806452,71.1306452 C76.2564516,71.8806452 79.0322581,75.1370968 79.0322581,79.0322581 C79.0322581,83.4790323 75.4145161,87.0967742 70.9677419,87.0967742 C66.5209677,87.0967742 62.9032258,83.4790323 62.9032258,79.0322581 C62.9032258,78.4935484 62.9774194,77.9548387 63.0903226,77.4193548 Z M69.3548387,64.516129 L37.0967742,64.516129 L37.0967742,58.0645161 L69.3548387,58.0645161 L69.3548387,64.516129 Z M33.8709677,58.0645161 L33.8709677,64.516129 L24.1935484,64.516129 L24.1935484,58.0645161 L33.8709677,58.0645161 Z M24.1935484,67.7419355 L33.8709677,67.7419355 L33.8709677,74.1935484 L24.1935484,74.1935484 L24.1935484,67.7419355 Z M88.7096774,75.4532258 L88.7096774,82.6112903 L85.566129,83.3967742 L84.7048387,83.7225806 L83.9548387,85.5645161 L86.0451613,89.0483871 L80.9822581,94.1096774 L77.5,92.0193548 L75.5322581,92.8306452 L74.5467742,96.7741935 L67.3887097,96.7741935 L66.4032258,92.8290323 L64.4354839,92.0177419 L60.9532258,94.1080645 L55.8903226,89.0467742 L57.9806452,85.5629032 L57.1806452,83.5983871 L53.2258065,82.6112903 L53.2258065,77.4193548 L59.8177419,77.4193548 C59.7387097,77.9548387 59.6774194,78.4919355 59.6774194,79.0322581 C59.6774194,85.2580645 64.7435484,90.3225806 70.9677419,90.3225806 C77.1919355,90.3225806 82.2580645,85.2580645 82.2580645,79.0322581 C82.2580645,73.3564516 78.0419355,68.6580645 72.5806452,67.8709677 L72.5806452,61.2903226 L74.5467742,61.2903226 L75.5322581,65.2354839 L77.5,66.0467742 L80.9822581,63.9564516 L86.0451613,69.0177419 L83.9548387,72.4983871 L84.7548387,74.466129 L88.7096774,75.4532258 Z" id="Shape" fill="#FFFFFF" fill-rule="nonzero"></path>
                    <path d="M48.3870968,32.2580645 L48.3870968,48.3870968 L100,48.3870968 L100,32.2580645 L48.3870968,32.2580645 Z M51.6129032,35.483871 L61.2903226,35.483871 L61.2903226,45.1612903 L51.6129032,45.1612903 L51.6129032,35.483871 Z M96.7741935,45.1612903 L64.516129,45.1612903 L64.516129,35.483871 L96.7741935,35.483871 L96.7741935,45.1612903 Z" id="Shape" fill="#FFFFFF" fill-rule="nonzero"></path>
                    <polygon id="Path" fill="#FFFFFF" fill-rule="nonzero" points="43.5483871 80.6451613 46.7741935 80.6451613 46.7741935 83.8709677 43.5483871 83.8709677"></polygon>
                    <polygon id="Path" fill="#FFFFFF" fill-rule="nonzero" points="37.0967742 80.6451613 40.3225806 80.6451613 40.3225806 83.8709677 37.0967742 83.8709677"></polygon>
                    <path d="M3.22580645,75.8064516 L3.22580645,46.7741935 C3.22580645,44.1064516 5.39677419,41.9354839 8.06451613,41.9354839 L29.0322581,41.9354839 L29.0322581,49.383871 L47.1548387,40.3225806 L29.0322581,31.2612903 L29.0322581,38.7096774 L8.06451613,38.7096774 C3.61774194,38.7096774 0,42.3274194 0,46.7741935 L0,75.8064516 C0,80.2532258 3.61774194,83.8709677 8.06451613,83.8709677 L33.8709677,83.8709677 L33.8709677,80.6451613 L8.06451613,80.6451613 C5.39677419,80.6451613 3.22580645,78.4741935 3.22580645,75.8064516 Z M32.2580645,36.4806452 L39.9419355,40.3225806 L32.2580645,44.1645161 L32.2580645,36.4806452 Z" id="Shape" fill="#ECC15E" fill-rule="nonzero"></path>
                    <path d="M61.2903226,0 L9.67741935,0 L9.67741935,22.5806452 L61.2903226,22.5806452 L61.2903226,0 Z M58.0645161,9.67741935 L25.8064516,9.67741935 L25.8064516,3.22580645 L58.0645161,3.22580645 L58.0645161,9.67741935 Z M22.5806452,3.22580645 L22.5806452,9.67741935 L12.9032258,9.67741935 L12.9032258,3.22580645 L22.5806452,3.22580645 Z M12.9032258,12.9032258 L22.5806452,12.9032258 L22.5806452,19.3548387 L12.9032258,19.3548387 L12.9032258,12.9032258 Z M25.8064516,19.3548387 L25.8064516,12.9032258 L58.0645161,12.9032258 L58.0645161,19.3548387 L25.8064516,19.3548387 Z" id="Shape" fill="#FFFFFF" fill-rule="nonzero"></path>
                    <polygon id="Path" fill="#FFFFFF" fill-rule="nonzero" points="77.4193548 38.7096774 80.6451613 38.7096774 80.6451613 41.9354839 77.4193548 41.9354839"></polygon>
                    <polygon id="Path" fill="#FFFFFF" fill-rule="nonzero" points="83.8709677 38.7096774 87.0967742 38.7096774 87.0967742 41.9354839 83.8709677 41.9354839"></polygon>
                    <polygon id="Path" fill="#FFFFFF" fill-rule="nonzero" points="90.3225806 38.7096774 93.5483871 38.7096774 93.5483871 41.9354839 90.3225806 41.9354839"></polygon>
                    <polygon id="Path" fill="#FFFFFF" fill-rule="nonzero" points="64.516129 9.67741935 67.7419355 9.67741935 67.7419355 12.9032258 64.516129 12.9032258"></polygon>
                    <path d="M87.0967742,14.516129 L87.0967742,19.3548387 L80.6451613,19.3548387 L88.7096774,30.1080645 L96.7741935,19.3548387 L90.3225806,19.3548387 L90.3225806,14.516129 C90.3225806,11.8483871 88.1516129,9.67741935 85.483871,9.67741935 L70.9677419,9.67741935 L70.9677419,12.9032258 L85.483871,12.9032258 C86.3741935,12.9032258 87.0967742,13.6274194 87.0967742,14.516129 Z M88.7096774,24.7306452 L87.0967742,22.5806452 L90.3225806,22.5806452 L88.7096774,24.7306452 Z" id="Shape" fill="#ECC15E" fill-rule="nonzero"></path>
                </g>
            </g>
        </g>
    </g>
</svg>