<?xml version="1.0" encoding="UTF-8"?>
<svg width="158px" height="182px" viewBox="0 0 158 182" version="1.1" xmlns="http://www.w3.org/2000/svg" xmlns:xlink="http://www.w3.org/1999/xlink">
    <!-- Generator: Sketch 58 (84663) - https://sketch.com -->
    <title>listen_icon</title>
    <desc>Created with Sketch.</desc>
    <g id="Main-site" stroke="none" stroke-width="1" fill="none" fill-rule="evenodd">
        <g id="website-(1440)" transform="translate(-211.000000, -1700.000000)">
            <g id="listen_icon" transform="translate(201.000000, 1702.000000)">
                <polygon id="Polygon" stroke="#FFFFFF" stroke-width="3" points="89 0 166.076261 44.5 166.076261 133.5 89 178 11.9237391 133.5 11.9237391 44.5"></polygon>
                <g id="chat" transform="translate(38.000000, 45.000000)" fill-rule="nonzero">
                    <path d="M89.5799105,67 L72.1673444,51.6328203 L50.9971533,51.6328203 C45.3959435,51.6328203 40.2828894,48.5750396 37.6559069,43.6536116 L37,42.4245037 L38.1004473,41.563462 C38.7479667,41.0588283 39.4089061,40.6041583 40.0698455,40.2111102 C44.7417141,37.4297956 47.6421309,32.3401563 47.6421309,26.9324146 L47.6421309,26.4011336 C47.6421309,20.5770274 45.4278162,15.0060709 41.4051444,10.7141859 L40.1738512,9.40013968 L41.5879931,8.27928654 C44.2921411,6.13417681 47.5448353,5 50.9971533,5 L87.9023993,5 C96.2278874,5 103,11.7234534 103,19.9891208 L103,36.6436995 C103,44.3464421 97.1186458,50.7084911 89.5799105,51.5395546 L89.5799105,67 L89.5799105,67 Z" id="Path" fill="#E96658"></path>
                    <g id="Group" fill="#FFFFFF">
                        <path d="M17.1930518,87.9642647 C9.19097095,87.9642647 2.16768183,82.7019126 0,75.166993 L3.2081691,74.2576347 C4.96732628,80.377997 10.6716644,84.651484 17.0779979,84.651484 C25.1467766,84.651484 31.6181406,78.2230332 31.6181406,70.3220513 L31.6181406,56.2129185 C31.6181406,49.6784587 35.1231154,43.5282814 40.7640905,40.165809 C45.4095994,37.3979808 48.2926162,32.336052 48.2926162,26.9577526 L48.2926162,26.429364 C48.2926162,13.7795111 37.9327645,3.48835803 25.1984675,3.48835803 C19.030579,3.48835803 13.2311964,5.8735601 8.86915357,10.2083336 L2.78296998,16.2541583 L0.425199128,13.9120224 L6.51138272,7.86619766 C11.5053882,2.90530863 18.140162,0.175577375 25.1984675,0.175577375 C39.7719592,0.175577375 51.6275113,11.9525126 51.6275113,26.429364 L51.6275113,26.9577526 C51.6275113,33.4922124 48.1225366,39.6423897 42.4815615,43.004862 C37.8360526,45.7726903 34.9530357,50.8346191 34.9530357,56.2129185 L34.9530357,70.3220513 C34.9530357,80.0500317 26.9859713,87.9642647 17.1930518,87.9642647 Z" id="Path"></path>
                        <path d="M17.4448364,74.7131421 C13.307899,74.7131421 9.94132235,71.36889 9.94132235,67.2593856 L9.94132235,43.896 C9.94132235,36.7022969 13.0027561,29.7868672 18.3419231,24.9253616 L30.4909461,13.8623306 L32.7453352,16.3055064 L20.5963122,27.3685374 C15.9441336,31.6039274 13.2762175,37.6265627 13.2762175,43.896 L13.2762175,67.2593856 C13.2762175,69.5435479 15.1454262,71.4003614 17.4448364,71.4003614 C19.7442465,71.4003614 21.6134553,69.5435479 21.6134553,67.2593856 L21.6134553,56.4928485 L24.9483504,56.4928485 L24.9483504,67.2593856 C24.9483504,71.36889 21.5817738,74.7131421 17.4448364,74.7131421 Z" id="Path"></path>
                        <rect id="Rectangle" x="56.629854" y="16.7394806" width="33.3489512" height="3.31278065"></rect>
                        <rect id="Rectangle" x="56.629854" y="26.6778226" width="33.3489512" height="3.31278065"></rect>
                        <rect id="Rectangle" x="56.629854" y="36.6161646" width="33.3489512" height="3.31278065"></rect>
                    </g>
                </g>
            </g>
        </g>
    </g>
</svg>