<?xml version="1.0" encoding="UTF-8"?>
<svg width="100px" height="100px" viewBox="0 0 100 100" version="1.1" xmlns="http://www.w3.org/2000/svg" xmlns:xlink="http://www.w3.org/1999/xlink">
    <!-- Generator: Sketch 58 (84663) - https://sketch.com -->
    <title>mvp_icon</title>
    <desc>Created with Sketch.</desc>
    <g id="Main-site" stroke="none" stroke-width="1" fill="none" fill-rule="evenodd">
        <g id="website-(1440)" transform="translate(-230.000000, -2737.000000)">
            <g id="icons" transform="translate(230.000000, 2737.000000)">
                <g id="009-developer">
                    <path d="M24.1935484,16.1290323 C19.7467742,16.1290323 16.1290323,19.7467742 16.1290323,24.1935484 C16.1290323,28.6403226 19.7467742,32.2580645 24.1935484,32.2580645 C28.6403226,32.2580645 32.2580645,28.6403226 32.2580645,24.1935484 C32.2580645,19.7467742 28.6403226,16.1290323 24.1935484,16.1290323 Z M24.1935484,29.0322581 C21.5258065,29.0322581 19.3548387,26.8612903 19.3548387,24.1935484 C19.3548387,21.5258065 21.5258065,19.3548387 24.1935484,19.3548387 C26.8612903,19.3548387 29.0322581,21.5258065 29.0322581,24.1935484 C29.0322581,26.8612903 26.8612903,29.0322581 24.1935484,29.0322581 Z" id="Shape" fill="#ECC15E" fill-rule="nonzero"></path>
                    <path d="M75.8064516,16.1290323 C71.3596774,16.1290323 67.7419355,19.7467742 67.7419355,24.1935484 C67.7419355,28.6403226 71.3596774,32.2580645 75.8064516,32.2580645 C80.2532258,32.2580645 83.8709677,28.6403226 83.8709677,24.1935484 C83.8709677,19.7467742 80.2532258,16.1290323 75.8064516,16.1290323 Z M75.8064516,29.0322581 C73.1387097,29.0322581 70.9677419,26.8612903 70.9677419,24.1935484 C70.9677419,21.5258065 73.1387097,19.3548387 75.8064516,19.3548387 C78.4741935,19.3548387 80.6451613,21.5258065 80.6451613,24.1935484 C80.6451613,26.8612903 78.4741935,29.0322581 75.8064516,29.0322581 Z" id="Shape" fill="#ECC15E" fill-rule="nonzero"></path>
                    <path d="M100,30.2967742 L100,18.0903226 L95.4935484,16.9822581 C95.2951613,16.4467742 95.0709677,15.9112903 94.8225806,15.3774194 L97.2290323,11.4 L88.5983871,2.76935484 L84.6209677,5.17741935 C84.0887097,4.92903226 83.5532258,4.70483871 83.0177419,4.50645161 L81.9096774,0 L69.7032258,0 L68.5951613,4.50645161 C68.0596774,4.70483871 67.5241935,4.92903226 66.9919355,5.17741935 L63.0129032,2.77096774 L54.3822581,11.4016129 L56.7887097,15.3790323 C56.5403226,15.9129032 56.316129,16.4483871 56.1177419,16.983871 L51.6129032,18.0903226 L51.6129032,30.2967742 L56.1193548,31.4048387 C56.2258065,31.6903226 56.3564516,31.9758065 56.4774194,32.2596774 C55.2419355,32.2645161 54.1241935,32.7467742 53.2709677,33.516129 C52.4129032,32.7419355 51.2887097,32.2580645 50.0451613,32.2580645 C48.8016129,32.2580645 47.6774194,32.7435484 46.8193548,33.516129 C45.9612903,32.7419355 44.8370968,32.2580645 43.5935484,32.2580645 C43.5693548,32.2580645 43.5451613,32.2629032 43.5209677,32.2645161 C43.6419355,31.9774194 43.7758065,31.6919355 43.8822581,31.4048387 L48.3870968,30.2967742 L48.3870968,18.0903226 L43.8806452,16.9822581 C43.6822581,16.4467742 43.4580645,15.9112903 43.2096774,15.3774194 L45.616129,11.4 L36.9854839,2.76935484 L33.0080645,5.17741935 C32.4758065,4.92903226 31.9403226,4.70483871 31.4048387,4.50645161 L30.2967742,0 L18.0903226,0 L16.9822581,4.50645161 C16.4467742,4.70483871 15.9112903,4.92903226 15.3790323,5.17741935 L11.4,2.77096774 L2.77096774,11.4016129 L5.17741935,15.3790323 C4.92903226,15.9129032 4.70483871,16.4483871 4.50645161,16.983871 L0,18.0903226 L0,30.2967742 L4.50645161,31.4048387 C4.70483871,31.9419355 4.92903226,32.4774194 5.17741935,33.0096774 L2.77096774,36.9870968 L4,38.2145161 C1.55645161,40.2870968 0,43.3725806 0,46.8193548 C0,53.0451613 5.06612903,58.1096774 11.2903226,58.1096774 L32.3016129,58.1096774 L32.3016129,58.8951613 C32.3016129,61.9112903 33.4774194,64.7451613 35.6096774,66.8790323 L37.1403226,68.4112903 L37.1403226,77.4193548 L33.9145161,77.4193548 L33.9145161,100 L66.1725806,100 L66.1725806,77.4193548 L62.9467742,77.4193548 L62.9467742,68.4112903 L64.4790323,66.8790323 C66.6112903,64.7467742 67.7854839,61.9112903 67.7854839,58.8951613 L67.7854839,58.1096774 L82.7451613,58.1096774 L99.6806452,46.8193548 L92.3080645,41.9048387 L97.2274194,36.9854839 L94.8209677,33.0080645 C95.0693548,32.4741935 95.2935484,31.9387097 95.4919355,31.4032258 L100,30.2967742 Z M33.9145161,54.883871 L25.85,54.883871 L25.85,48.3887097 L38.7532258,48.4 L38.7532258,50.0451613 C38.7532258,52.7129032 36.583871,54.883871 33.9145161,54.883871 Z M12.9032258,24.1935484 C12.9032258,17.9677419 17.9693548,12.9032258 24.1935484,12.9032258 C30.4177419,12.9032258 35.483871,17.9677419 35.483871,24.1935484 C35.483871,30.4193548 30.4177419,35.483871 24.1935484,35.483871 C17.9693548,35.483871 12.9032258,30.4193548 12.9032258,24.1935484 Z M38.7532258,45.1741935 L25.85,45.1629032 L25.85,38.7548387 L38.7532258,38.7548387 L38.7532258,45.1741935 Z M22.6241935,38.7548387 L22.6241935,54.883871 L19.3983871,54.883871 L19.3983871,38.7548387 L22.6241935,38.7548387 Z M8.44677419,32.3451613 C7.96612903,31.4209677 7.57419355,30.4854839 7.28064516,29.5596774 L7.00645161,28.6983871 L3.22580645,27.7677419 L3.22580645,20.6193548 L7.01129032,19.6887097 L7.28387097,18.8241935 C7.57580645,17.9032258 7.96774194,16.9677419 8.4483871,16.0419355 L8.86612903,15.2370968 L6.84032258,11.8951613 L11.8951613,6.83870968 L15.2370968,8.86290323 L16.0403226,8.44677419 C16.9629032,7.96774194 17.9,7.57580645 18.8274194,7.28225806 L19.6887097,7.00806452 L20.6193548,3.22580645 L27.7677419,3.22580645 L28.6983871,7.00806452 L29.5596774,7.28225806 C30.4854839,7.57580645 31.4225806,7.96774194 32.3467742,8.44677419 L33.15,8.86290323 L36.4919355,6.83870968 L41.5467742,11.8935484 L39.5225806,15.2370968 L39.9403226,16.0419355 C40.4209677,16.9677419 40.8129032,17.9032258 41.1048387,18.8241935 L41.3774194,19.6887097 L45.1612903,20.6193548 L45.1612903,27.7677419 L41.3758065,28.6983871 L41.1032258,29.5629032 C40.8112903,30.483871 40.4193548,31.4193548 39.9387097,32.3451613 L39.5435484,33.1048387 L39.9774194,33.9032258 C39.5596774,34.3758065 39.2225806,34.9193548 39.0145161,35.5290323 L33.2370968,35.5290323 C36.5677419,32.866129 38.7096774,28.7790323 38.7096774,24.1935484 C38.7096774,16.1903226 32.1983871,9.67741935 24.1935484,9.67741935 C16.1887097,9.67741935 9.67741935,16.1903226 9.67741935,24.1935484 C9.67741935,28.7790323 11.8193548,32.866129 15.15,35.5290323 L11.2903226,35.5290323 C9.72580645,35.5290323 8.23548387,35.85 6.88064516,36.4274194 L8.86451613,33.15 L8.44677419,32.3451613 Z M3.22580645,46.8193548 C3.22580645,42.3725806 6.84354839,38.7548387 11.2903226,38.7548387 L16.1725806,38.7548387 L16.1725806,54.883871 L11.2903226,54.883871 C6.84354839,54.883871 3.22580645,51.266129 3.22580645,46.8193548 Z M62.9467742,80.6451613 L62.9467742,83.8709677 L37.1403226,83.8709677 L37.1403226,80.6451613 L62.9467742,80.6451613 Z M37.1403226,96.7741935 L37.1403226,87.0967742 L62.9467742,87.0967742 L62.9467742,96.7741935 L37.1403226,96.7741935 Z M64.5596774,58.8951613 C64.5596774,61.05 63.7209677,63.0741935 62.1983871,64.5983871 L59.7209677,67.0741935 L59.7209677,77.4193548 L40.366129,77.4193548 L40.366129,67.0741935 L37.8903226,64.5967742 C36.3887097,63.0951613 35.5274194,61.016129 35.5274194,58.8935484 L35.5274194,57.9451613 C39.2032258,57.1951613 41.9790323,53.9387097 41.9790323,50.0435484 L41.9790323,37.0967742 C41.9790323,36.2080645 42.7016129,35.483871 43.5919355,35.483871 C44.4822581,35.483871 45.2048387,36.2080645 45.2048387,37.0967742 L45.2048387,46.7741935 L45.2048387,56.4516129 L48.4306452,56.4516129 L48.4306452,46.7741935 L48.4306452,37.0967742 C48.4306452,36.2080645 49.1532258,35.483871 50.0435484,35.483871 C50.933871,35.483871 51.6564516,36.2080645 51.6564516,37.0967742 L51.6564516,46.7741935 L51.6564516,56.4516129 L54.8822581,56.4516129 L54.8822581,46.7741935 L54.8822581,37.0967742 C54.8822581,36.2080645 55.6048387,35.483871 56.4951613,35.483871 C57.3854839,35.483871 58.1080645,36.2080645 58.1080645,37.0967742 L58.1080645,56.4516129 L61.333871,56.4516129 L61.333871,37.0967742 C61.333871,36.2080645 62.0564516,35.483871 62.9467742,35.483871 C63.8370968,35.483871 64.5596774,36.2080645 64.5596774,37.0967742 L64.5596774,58.8951613 Z M67.7854839,38.7548387 L80.6451613,38.7548387 L80.6451613,45.2048387 L67.7854839,45.1983871 L67.7854839,38.7548387 Z M75.8064516,35.483871 C69.5822581,35.483871 64.516129,30.4193548 64.516129,24.1935484 C64.516129,17.9677419 69.5822581,12.9032258 75.8064516,12.9032258 C82.0306452,12.9032258 87.0967742,17.9677419 87.0967742,24.1935484 C87.0967742,30.4193548 82.0306452,35.483871 75.8064516,35.483871 Z M67.7854839,48.4241935 L80.6451613,48.4306452 L80.6451613,54.883871 L67.7854839,54.883871 L67.7854839,48.4241935 Z M83.8709677,53.4822581 L83.8709677,40.1548387 L93.866129,46.8193548 L83.8709677,53.4822581 Z M93.1596774,36.4919355 L89.5725806,40.0790323 L83.8516129,36.266129 C87.75,33.6612903 90.3225806,29.2225806 90.3225806,24.1935484 C90.3225806,16.1903226 83.8112903,9.67741935 75.8064516,9.67741935 C67.8016129,9.67741935 61.2903226,16.1903226 61.2903226,24.1935484 C61.2903226,27.2129032 62.2193548,30.0193548 63.8032258,32.3451613 C63.5241935,32.2951613 63.2403226,32.2580645 62.9467742,32.2580645 C62.0096774,32.2580645 61.1419355,32.5370968 60.4,33 L60.0596774,32.3451613 C59.5790323,31.4193548 59.1870968,30.483871 58.8951613,29.5629032 L58.6225806,28.6983871 L54.8387097,27.7677419 L54.8387097,20.6193548 L58.6241935,19.6887097 L58.8967742,18.8241935 C59.1887097,17.9032258 59.5806452,16.9677419 60.0612903,16.0419355 L60.4790323,15.2370968 L58.4548387,11.8935484 L63.5096774,6.83870968 L66.8516129,8.86290323 L67.6548387,8.44677419 C68.5774194,7.96774194 69.5145161,7.57580645 70.4419355,7.28225806 L71.3032258,7.00806452 L72.2322581,3.22580645 L79.3806452,3.22580645 L80.3112903,7.00806452 L81.1725806,7.28225806 C82.0983871,7.57580645 83.0354839,7.96774194 83.9596774,8.44677419 L84.7629032,8.86290323 L88.1048387,6.83870968 L93.1596774,11.8935484 L91.1354839,15.2370968 L91.5532258,16.0419355 C92.033871,16.9677419 92.4258065,17.9032258 92.7177419,18.8241935 L92.9903226,19.6887097 L96.7741935,20.6193548 L96.7741935,27.7677419 L92.9887097,28.6983871 L92.716129,29.5629032 C92.4241935,30.483871 92.0322581,31.4193548 91.5516129,32.3451613 L91.133871,33.15 L93.1596774,36.4919355 Z" id="Shape" fill="#FFFFFF" fill-rule="nonzero"></path>
                    <polygon id="Path" fill="#FFFFFF" fill-rule="nonzero" points="69.3548387 77.4193548 72.5806452 77.4193548 72.5806452 80.6451613 69.3548387 80.6451613"></polygon>
                    <polygon id="Path" fill="#FFFFFF" fill-rule="nonzero" points="69.3548387 83.8709677 72.5806452 83.8709677 72.5806452 87.0967742 69.3548387 87.0967742"></polygon>
                    <polygon id="Path" fill="#FFFFFF" fill-rule="nonzero" points="69.3548387 90.3225806 72.5806452 90.3225806 72.5806452 93.5483871 69.3548387 93.5483871"></polygon>
                    <polygon id="Path" fill="#FFFFFF" fill-rule="nonzero" points="69.3548387 96.7741935 72.5806452 96.7741935 72.5806452 100 69.3548387 100"></polygon>
                    <polygon id="Path" fill="#FFFFFF" fill-rule="nonzero" points="27.4193548 77.4193548 30.6451613 77.4193548 30.6451613 80.6451613 27.4193548 80.6451613"></polygon>
                    <polygon id="Path" fill="#FFFFFF" fill-rule="nonzero" points="27.4193548 83.8709677 30.6451613 83.8709677 30.6451613 87.0967742 27.4193548 87.0967742"></polygon>
                    <polygon id="Path" fill="#FFFFFF" fill-rule="nonzero" points="27.4193548 90.3225806 30.6451613 90.3225806 30.6451613 93.5483871 27.4193548 93.5483871"></polygon>
                    <polygon id="Path" fill="#FFFFFF" fill-rule="nonzero" points="27.4193548 96.7741935 30.6451613 96.7741935 30.6451613 100 27.4193548 100"></polygon>
                </g>
            </g>
        </g>
    </g>
</svg>