<?xml version="1.0" encoding="UTF-8"?>
<svg width="100px" height="100px" viewBox="0 0 100 100" version="1.1" xmlns="http://www.w3.org/2000/svg" xmlns:xlink="http://www.w3.org/1999/xlink">
    <!-- Generator: Sketch 58 (84663) - https://sketch.com -->
    <title>payments_icon</title>
    <desc>Created with Sketch.</desc>
    <g id="Main-site" stroke="none" stroke-width="1" fill="none" fill-rule="evenodd">
        <g id="website-(1440)" transform="translate(-655.000000, -3086.000000)">
            <g id="icons/payments" transform="translate(655.000000, 3086.000000)">
                <g id="016-online-payment">
                    <polygon id="Path" fill="#FFFFFF" fill-rule="nonzero" points="41.9354839 29.0322581 45.1612903 29.0322581 45.1612903 32.2580645 41.9354839 32.2580645"></polygon>
                    <polygon id="Path" fill="#FFFFFF" fill-rule="nonzero" points="48.3870968 29.0322581 58.0645161 29.0322581 58.0645161 32.2580645 48.3870968 32.2580645"></polygon>
                    <polygon id="Path" fill="#FFFFFF" fill-rule="nonzero" points="45.1612903 90.3225806 54.8387097 90.3225806 54.8387097 93.5483871 45.1612903 93.5483871"></polygon>
                    <path d="M91.9354839,41.9354839 L74.1935484,41.9354839 L74.1935484,33.5274194 C76.6806452,34.8096774 79.4209677,35.483871 82.2580645,35.483871 C92.0403226,35.483871 100,27.5241935 100,17.7419355 C100,7.95967742 92.0403226,0 82.2580645,0 C72.4758065,0 64.516129,7.95967742 64.516129,17.7419355 C64.516129,19.3903226 64.7677419,21.0064516 65.2177419,22.5806452 L54.3822581,22.5806452 C52.0709677,9.61612903 40.7403226,0 27.4193548,0 C12.3,0 0,12.3 0,27.4193548 C0,41.9935484 11.4387097,53.9145161 25.8064516,54.7564516 L25.8064516,91.9354839 C25.8064516,96.3822581 29.4241935,100 33.8709677,100 L66.1290323,100 C70.5758065,100 74.1935484,96.3822581 74.1935484,91.9354839 L74.1935484,80.6451613 L91.9354839,80.6451613 C96.3822581,80.6451613 100,77.0274194 100,72.5806452 L100,50 C100,45.5532258 96.3822581,41.9354839 91.9354839,41.9354839 Z M64.516129,41.9354839 L53.2258065,41.9354839 C48.7790323,41.9354839 45.1612903,45.5532258 45.1612903,50 L45.1612903,72.5806452 C45.1612903,77.0274194 48.7790323,80.6451613 53.2258065,80.6451613 L64.516129,80.6451613 L64.516129,83.8709677 L35.483871,83.8709677 L35.483871,38.7096774 L64.516129,38.7096774 L64.516129,41.9354839 Z M48.3870968,51.6129032 L96.7741935,51.6129032 L96.7741935,54.8387097 L48.3870968,54.8387097 L48.3870968,51.6129032 Z M96.4774194,48.3870968 L48.683871,48.3870968 C49.3516129,46.5145161 51.1258065,45.1612903 53.2258065,45.1612903 L91.9354839,45.1612903 C94.0354839,45.1612903 95.8096774,46.5145161 96.4774194,48.3870968 Z M82.2580645,3.22580645 C90.2629032,3.22580645 96.7741935,9.73709677 96.7741935,17.7419355 C96.7741935,25.7467742 90.2629032,32.2580645 82.2580645,32.2580645 C79.3258065,32.2580645 76.5225806,31.3741935 74.1,29.7145161 C73.7387097,26.6177419 71.6387097,24.0693548 68.7854839,23.0645161 C68.1048387,21.3564516 67.7419355,19.5709677 67.7419355,17.7419355 C67.7419355,9.73709677 74.2532258,3.22580645 82.2580645,3.22580645 Z M27.4612903,25.8064516 L16.1693548,25.8064516 C16.2822581,22.3516129 16.7403226,19.066129 17.4854839,16.1290323 L37.3580645,16.1290323 C37.8677419,18.1322581 38.2419355,20.3016129 38.4677419,22.5806452 L33.8709677,22.5806452 C31.2467742,22.5806452 28.933871,23.8596774 27.4612903,25.8064516 L27.4612903,25.8064516 Z M25.8064516,38.7096774 L17.4854839,38.7096774 C16.7403226,35.7725806 16.2822581,32.4870968 16.1693548,29.0322581 L25.9709677,29.0322581 C25.8629032,29.5532258 25.8064516,30.0935484 25.8064516,30.6451613 L25.8064516,38.7096774 Z M18.4741935,41.9354839 L25.8064516,41.9354839 L25.8064516,51.3241935 C22.8564516,50.3709677 20.2403226,46.8758065 18.4741935,41.9354839 Z M3.30806452,29.0322581 L12.9451613,29.0322581 C13.0467742,32.4822581 13.4645161,35.7419355 14.1580645,38.7096774 L6.03709677,38.7096774 C4.48870968,35.7870968 3.53870968,32.5080645 3.30806452,29.0322581 Z M3.30806452,25.8064516 C3.53870968,22.3306452 4.48870968,19.0516129 6.03870968,16.1290323 L14.1580645,16.1290323 C13.4645161,19.0967742 13.0467742,22.3564516 12.9451613,25.8064516 L3.30806452,25.8064516 Z M27.4193548,3.22580645 C30.9758065,3.22580645 34.2677419,7.0483871 36.3693548,12.9032258 L18.4741935,12.9032258 C20.5580645,7.07580645 23.8193548,3.22580645 27.4193548,3.22580645 Z M41.7016129,22.5806452 C41.4935484,20.3080645 41.1516129,18.1483871 40.6822581,16.1290323 L48.816129,16.1290323 C49.8709677,18.1241935 50.6483871,20.2919355 51.1129032,22.5806452 L41.7016129,22.5806452 Z M46.75,12.9032258 L39.7919355,12.9032258 C38.7258065,9.60645161 37.3032258,6.81612903 35.6225806,4.67741935 C40.0725806,6.28709677 43.933871,9.16451613 46.75,12.9032258 Z M19.1967742,4.69516129 C17.5225806,6.83548387 16.1193548,9.64032258 15.0580645,12.9032258 L8.10967742,12.9032258 C10.9112903,9.18709677 14.7467742,6.31129032 19.1967742,4.69516129 Z M8.10967742,41.9354839 L15.0580645,41.9354839 C16.1193548,45.1983871 17.5225806,48.0032258 19.1967742,50.1435484 C14.7467742,48.5274194 10.9112903,45.6516129 8.10967742,41.9354839 Z M70.9677419,91.9354839 C70.9677419,94.6032258 68.7967742,96.7741935 66.1290323,96.7741935 L33.8709677,96.7741935 C31.2032258,96.7741935 29.0322581,94.6032258 29.0322581,91.9354839 L29.0322581,30.6451613 C29.0322581,27.9774194 31.2032258,25.8064516 33.8709677,25.8064516 L66.1290323,25.8064516 C68.7967742,25.8064516 70.9677419,27.9774194 70.9677419,30.6451613 L70.9677419,41.9354839 L67.7419355,41.9354839 L67.7419355,38.7096774 C67.7419355,36.9306452 66.2951613,35.483871 64.516129,35.483871 L35.483871,35.483871 C33.7048387,35.483871 32.2580645,36.9306452 32.2580645,38.7096774 L32.2580645,83.8709677 C32.2580645,85.65 33.7048387,87.0967742 35.483871,87.0967742 L64.516129,87.0967742 C66.2951613,87.0967742 67.7419355,85.65 67.7419355,83.8709677 L67.7419355,80.6451613 L70.9677419,80.6451613 L70.9677419,91.9354839 Z M91.9354839,77.4193548 L53.2258065,77.4193548 C50.5580645,77.4193548 48.3870968,75.2483871 48.3870968,72.5806452 L48.3870968,58.0645161 L96.7741935,58.0645161 L96.7741935,72.5806452 C96.7741935,75.2483871 94.6032258,77.4193548 91.9354839,77.4193548 Z" id="Shape" fill="#FFFFFF" fill-rule="nonzero"></path>
                    <path d="M87.0967742,61.2903226 C85.9564516,61.2903226 84.8467742,61.6096774 83.8677419,62.1854839 C82.9145161,61.6306452 81.8241935,61.2903226 80.6451613,61.2903226 C77.0870968,61.2903226 74.1935484,64.183871 74.1935484,67.7419355 C74.1935484,71.3 77.0870968,74.1935484 80.6451613,74.1935484 C81.8241935,74.1935484 82.9145161,73.8532258 83.8677419,73.2983871 C84.8467742,73.8741935 85.9564516,74.1935484 87.0967742,74.1935484 C90.6548387,74.1935484 93.5483871,71.3 93.5483871,67.7419355 C93.5483871,64.183871 90.6548387,61.2903226 87.0967742,61.2903226 Z M77.4193548,67.7419355 C77.4193548,65.9629032 78.866129,64.516129 80.6451613,64.516129 C82.4241935,64.516129 83.8709677,65.9629032 83.8709677,67.7419355 C83.8709677,69.5209677 82.4241935,70.9677419 80.6451613,70.9677419 C78.866129,70.9677419 77.4193548,69.5209677 77.4193548,67.7419355 Z M87.0967742,70.9677419 C86.8145161,70.9677419 86.5387097,70.916129 86.2693548,70.8403226 C86.7806452,69.9177419 87.0967742,68.8709677 87.0967742,67.7419355 C87.0967742,66.6129032 86.7806452,65.566129 86.2693548,64.6435484 C86.5387097,64.5677419 86.8145161,64.516129 87.0967742,64.516129 C88.8758065,64.516129 90.3225806,65.9629032 90.3225806,67.7419355 C90.3225806,69.5209677 88.8758065,70.9677419 87.0967742,70.9677419 Z" id="Shape" fill="#ECC15E" fill-rule="nonzero"></path>
                    <path d="M64.516129,61.2903226 L54.8387097,61.2903226 C53.0596774,61.2903226 51.6129032,62.7370968 51.6129032,64.516129 L51.6129032,70.9677419 C51.6129032,72.7467742 53.0596774,74.1935484 54.8387097,74.1935484 L64.516129,74.1935484 C66.2951613,74.1935484 67.7419355,72.7467742 67.7419355,70.9677419 L67.7419355,64.516129 C67.7419355,62.7370968 66.2951613,61.2903226 64.516129,61.2903226 Z M54.8387097,70.9677419 L54.8387097,64.516129 L64.516129,64.516129 L64.5193548,70.9677419 L54.8387097,70.9677419 Z" id="Shape" fill="#ECC15E" fill-rule="nonzero"></path>
                    <polygon id="Path" fill="#FFFFFF" fill-rule="nonzero" points="38.7096774 77.4193548 41.9354839 77.4193548 41.9354839 80.6451613 38.7096774 80.6451613"></polygon>
                    <polygon id="Path" fill="#FFFFFF" fill-rule="nonzero" points="38.7096774 70.9677419 41.9354839 70.9677419 41.9354839 74.1935484 38.7096774 74.1935484"></polygon>
                    <polygon id="Path" fill="#FFFFFF" fill-rule="nonzero" points="38.7096774 64.516129 41.9354839 64.516129 41.9354839 67.7419355 38.7096774 67.7419355"></polygon>
                    <path d="M80.6451613,22.5806452 C79.7548387,22.5806452 79.0322581,21.8580645 79.0322581,20.9677419 L75.8064516,20.9677419 C75.8064516,23.6354839 77.9774194,25.8064516 80.6451613,25.8064516 L80.6451613,29.0322581 L83.8709677,29.0322581 L83.8709677,25.8064516 L88.7096774,25.8064516 L88.7096774,20.9677419 C88.7096774,18.3 86.5387097,16.1290323 83.8709677,16.1290323 L80.6451613,16.1290323 C79.7548387,16.1290323 79.0322581,15.4064516 79.0322581,14.516129 L79.0322581,12.9032258 L83.8709677,12.9032258 C84.7612903,12.9032258 85.483871,13.6258065 85.483871,14.516129 L88.7096774,14.516129 C88.7096774,11.8483871 86.5387097,9.67741935 83.8709677,9.67741935 L83.8709677,6.4516129 L80.6451613,6.4516129 L80.6451613,9.67741935 L75.8064516,9.67741935 L75.8064516,14.516129 C75.8064516,17.183871 77.9774194,19.3548387 80.6451613,19.3548387 L83.8709677,19.3548387 C84.7612903,19.3548387 85.483871,20.0774194 85.483871,20.9677419 L85.483871,22.5806452 L80.6451613,22.5806452 Z" id="Path" fill="#FFFFFF" fill-rule="nonzero"></path>
                    <polygon id="Path" fill="#FFFFFF" fill-rule="nonzero" points="25.8064516 19.3548387 29.0322581 19.3548387 29.0322581 22.5806452 25.8064516 22.5806452"></polygon>
                    <polygon id="Path" fill="#FFFFFF" fill-rule="nonzero" points="19.3548387 19.3548387 22.5806452 19.3548387 22.5806452 22.5806452 19.3548387 22.5806452"></polygon>
                </g>
            </g>
        </g>
    </g>
</svg>