<?xml version="1.0" encoding="UTF-8"?>
<svg width="100px" height="100px" viewBox="0 0 100 100" version="1.1" xmlns="http://www.w3.org/2000/svg" xmlns:xlink="http://www.w3.org/1999/xlink">
    <!-- Generator: Sketch 58 (84663) - https://sketch.com -->
    <title>webapp_icon</title>
    <desc>Created with Sketch.</desc>
    <g id="Main-site" stroke="none" stroke-width="1" fill="none" fill-rule="evenodd">
        <g id="website-(1440)" transform="translate(-655.000000, -2737.000000)">
            <g id="icons/contact" transform="translate(655.000000, 2737.000000)">
                <g id="008-contact">
                    <polygon id="Path" fill="#FFFFFF" fill-rule="nonzero" points="6.4516129 6.4516129 9.67741935 6.4516129 9.67741935 9.67741935 6.4516129 9.67741935"></polygon>
                    <polygon id="Path" fill="#FFFFFF" fill-rule="nonzero" points="12.9032258 6.4516129 16.1290323 6.4516129 16.1290323 9.67741935 12.9032258 9.67741935"></polygon>
                    <polygon id="Path" fill="#FFFFFF" fill-rule="nonzero" points="19.3548387 6.4516129 22.5806452 6.4516129 22.5806452 9.67741935 19.3548387 9.67741935"></polygon>
                    <path d="M91.9354839,32.2580645 L90.3225806,32.2580645 L90.3225806,0 L0,0 L0,70.9677419 L9.67741935,70.9677419 L9.67741935,91.9354839 C9.67741935,96.3822581 13.2951613,100 17.7419355,100 L50,100 C54.4467742,100 58.0645161,96.3822581 58.0645161,91.9354839 L58.0645161,74.0306452 C58.5854839,74.1370968 59.1258065,74.1935484 59.6774194,74.1935484 L91.9354839,74.1935484 C96.3822581,74.1935484 100,70.5758065 100,66.1290323 L100,40.3225806 C100,35.8758065 96.3822581,32.2580645 91.9354839,32.2580645 Z M87.0967742,3.22580645 L87.0967742,12.9032258 L3.22580645,12.9032258 L3.22580645,3.22580645 L87.0967742,3.22580645 Z M9.67741935,66.1290323 L9.67741935,67.7419355 L3.22580645,67.7419355 L3.22580645,16.1290323 L87.0967742,16.1290323 L87.0967742,32.2580645 L59.6774194,32.2580645 C55.2306452,32.2580645 51.6129032,35.8758065 51.6129032,40.3225806 L51.6129032,58.0645161 L17.7419355,58.0645161 C13.2951613,58.0645161 9.67741935,61.6822581 9.67741935,66.1290323 Z M54.8387097,72.5806452 L54.8387097,91.9354839 C54.8387097,94.6032258 52.6677419,96.7741935 50,96.7741935 L17.7419355,96.7741935 C15.0741935,96.7741935 12.9032258,94.6032258 12.9032258,91.9354839 L12.9032258,66.1290323 C12.9032258,63.4612903 15.0741935,61.2903226 17.7419355,61.2903226 L51.6129032,61.2903226 L51.6129032,66.1290323 C51.6129032,68.7758065 52.9129032,71.1096774 54.8887097,72.5806452 L54.8387097,72.5806452 Z M96.7741935,66.1290323 C96.7741935,68.7967742 94.6032258,70.9677419 91.9354839,70.9677419 L59.6774194,70.9677419 C57.0096774,70.9677419 54.8387097,68.7967742 54.8387097,66.1290323 L54.8387097,40.3225806 C54.8387097,37.6548387 57.0096774,35.483871 59.6774194,35.483871 L91.9354839,35.483871 C94.6032258,35.483871 96.7741935,37.6548387 96.7741935,40.3225806 L96.7741935,66.1290323 Z" id="Shape" fill="#FFFFFF" fill-rule="nonzero"></path>
                    <polygon id="Path" fill="#FFFFFF" fill-rule="nonzero" transform="translate(33.918518, 79.032480) rotate(-74.046738) translate(-33.918518, -79.032480) " points="22.1703079 77.4179079 45.6667276 77.4179079 45.6667276 80.6470518 22.1703079 80.6470518"></polygon>
                    <polygon id="Path" fill="#FFFFFF" fill-rule="nonzero" points="39.1822581 70.4951613 47.7193548 79.0322581 39.1822581 87.5693548 41.4629032 89.85 52.2806452 79.0322581 41.4629032 68.2145161"></polygon>
                    <polygon id="Path" fill="#FFFFFF" fill-rule="nonzero" points="26.2790323 68.2145161 15.4612903 79.0322581 26.2790323 89.85 28.5596774 87.5693548 20.0225806 79.0322581 28.5596774 70.4951613"></polygon>
                    <path d="M83.8709677,64.516129 L80.6451613,64.516129 L80.6451613,51.6129032 L70.9677419,51.6129032 L70.9677419,64.516129 L67.7419355,64.516129 L67.7419355,45.1612903 L58.0645161,45.1612903 L58.0645161,67.7419355 L93.5483871,67.7419355 L93.5483871,38.7096774 L83.8709677,38.7096774 L83.8709677,64.516129 Z M64.516129,64.516129 L61.2903226,64.516129 L61.2903226,48.3870968 L64.516129,48.3870968 L64.516129,64.516129 Z M74.1935484,54.8387097 L77.4193548,54.8387097 L77.4193548,64.516129 L74.1935484,64.516129 L74.1935484,54.8387097 Z M87.0967742,41.9354839 L90.3225806,41.9354839 L90.3225806,64.516129 L87.0967742,64.516129 L87.0967742,41.9354839 Z" id="Shape" fill="#ECC15E" fill-rule="nonzero"></path>
                    <path d="M48.3870968,19.3548387 L6.4516129,19.3548387 L6.4516129,54.8387097 L48.3870968,54.8387097 L48.3870968,19.3548387 Z M45.1612903,51.6129032 L9.67741935,51.6129032 L9.67741935,22.5806452 L45.1612903,22.5806452 L45.1612903,51.6129032 Z" id="Shape" fill="#FFFFFF" fill-rule="nonzero"></path>
                    <polygon id="Path" fill="#FFFFFF" fill-rule="nonzero" points="80.6451613 19.3548387 83.8709677 19.3548387 83.8709677 22.5806452 80.6451613 22.5806452"></polygon>
                    <polygon id="Path" fill="#FFFFFF" fill-rule="nonzero" points="74.1935484 19.3548387 77.4193548 19.3548387 77.4193548 22.5806452 74.1935484 22.5806452"></polygon>
                    <polygon id="Path" fill="#FFFFFF" fill-rule="nonzero" points="67.7419355 19.3548387 70.9677419 19.3548387 70.9677419 22.5806452 67.7419355 22.5806452"></polygon>
                    <polygon id="Path" fill="#FFFFFF" fill-rule="nonzero" points="12.9032258 25.8064516 41.9354839 25.8064516 41.9354839 29.0322581 12.9032258 29.0322581"></polygon>
                    <polygon id="Path" fill="#FFFFFF" fill-rule="nonzero" points="12.9032258 32.2580645 41.9354839 32.2580645 41.9354839 35.483871 12.9032258 35.483871"></polygon>
                    <polygon id="Path" fill="#FFFFFF" fill-rule="nonzero" points="12.9032258 38.7096774 41.9354839 38.7096774 41.9354839 41.9354839 12.9032258 41.9354839"></polygon>
                    <polygon id="Path" fill="#FFFFFF" fill-rule="nonzero" points="38.7096774 45.1612903 41.9354839 45.1612903 41.9354839 48.3870968 38.7096774 48.3870968"></polygon>
                    <polygon id="Path" fill="#FFFFFF" fill-rule="nonzero" points="32.2580645 45.1612903 35.483871 45.1612903 35.483871 48.3870968 32.2580645 48.3870968"></polygon>
                    <polygon id="Path" fill="#FFFFFF" fill-rule="nonzero" points="25.8064516 45.1612903 29.0322581 45.1612903 29.0322581 48.3870968 25.8064516 48.3870968"></polygon>
                    <polygon id="Path" fill="#FFFFFF" fill-rule="nonzero" points="19.3548387 45.1612903 22.5806452 45.1612903 22.5806452 48.3870968 19.3548387 48.3870968"></polygon>
                </g>
            </g>
        </g>
    </g>
</svg>